<svg xmlns="http://www.w3.org/2000/svg" width="111.979" height="15.947" viewBox="0 0 111.979 15.947">
  <g id="Group" transform="translate(0 -0.016)">
    <g id="star_3_" data-name="star (3)">
      <path id="Path" d="M9.2.5l1.892,3.811a.9.9,0,0,0,.68.491L16,5.414a.9.9,0,0,1,.5,1.531L13.443,9.911a.9.9,0,0,0-.26.795l.723,4.189a.9.9,0,0,1-1.311.947L8.81,13.864a.91.91,0,0,0-.841,0L4.184,15.841a.9.9,0,0,1-1.311-.947L3.6,10.706a.9.9,0,0,0-.26-.795L.274,6.945a.9.9,0,0,1,.5-1.531L5.007,4.8a.9.9,0,0,0,.68-.491L7.579.5A.906.906,0,0,1,9.2.5Z" transform="translate(0 0.016)" fill="#ed8a19"/>
    </g>
    <g id="star_3_copy" data-name="star (3) copy" transform="translate(23.8)">
      <path id="Path-2" data-name="Path" d="M9.2.5l1.892,3.811a.9.9,0,0,0,.68.491L16,5.414a.9.9,0,0,1,.5,1.531L13.443,9.911a.9.9,0,0,0-.26.795l.723,4.189a.9.9,0,0,1-1.311.947L8.81,13.864a.91.91,0,0,0-.841,0L4.184,15.841a.9.9,0,0,1-1.311-.947L3.6,10.706a.9.9,0,0,0-.26-.795L.274,6.945a.9.9,0,0,1,.5-1.531L5.007,4.8a.9.9,0,0,0,.68-.491L7.579.5A.906.906,0,0,1,9.2.5Z" transform="translate(0 0.016)" fill="#ed8a19"/>
    </g>
    <g id="star_3_copy_3" data-name="star (3) copy 3" transform="translate(71.4)">
      <path id="Path-3" data-name="Path" d="M9.2.5l1.892,3.811a.9.9,0,0,0,.68.491L16,5.414a.9.9,0,0,1,.5,1.531L13.443,9.911a.9.9,0,0,0-.26.795l.723,4.189a.9.9,0,0,1-1.311.947L8.81,13.864a.91.91,0,0,0-.841,0L4.184,15.841a.9.9,0,0,1-1.311-.947L3.6,10.706a.9.9,0,0,0-.26-.795L.274,6.945a.9.9,0,0,1,.5-1.531L5.007,4.8a.9.9,0,0,0,.68-.491L7.579.5A.906.906,0,0,1,9.2.5Z" transform="translate(0 0.016)" fill="#ed8a19"/>
    </g>
    <g id="star_3_copy_2" data-name="star (3) copy 2" transform="translate(47.6)">
      <path id="Path-4" data-name="Path" d="M9.2.5l1.892,3.811a.9.9,0,0,0,.68.491L16,5.414a.9.9,0,0,1,.5,1.531L13.443,9.911a.9.9,0,0,0-.26.795l.723,4.189a.9.9,0,0,1-1.311.947L8.81,13.864a.91.91,0,0,0-.841,0L4.184,15.841a.9.9,0,0,1-1.311-.947L3.6,10.706a.9.9,0,0,0-.26-.795L.274,6.945a.9.9,0,0,1,.5-1.531L5.007,4.8a.9.9,0,0,0,.68-.491L7.579.5A.906.906,0,0,1,9.2.5Z" transform="translate(0 0.016)" fill="#ed8a19"/>
    </g>
    <g id="star_3_copy_4" data-name="star (3) copy 4" transform="translate(95.2)">
      <path id="Path-5" data-name="Path" d="M9.2.5l1.892,3.811a.9.9,0,0,0,.68.491L16,5.414a.9.9,0,0,1,.5,1.531L13.443,9.911a.9.9,0,0,0-.26.795l.723,4.189a.9.9,0,0,1-1.311.947L8.81,13.864a.91.91,0,0,0-.841,0L4.184,15.841a.9.9,0,0,1-1.311-.947L3.6,10.706a.9.9,0,0,0-.26-.795L.274,6.945a.9.9,0,0,1,.5-1.531L5.007,4.8a.9.9,0,0,0,.68-.491L7.579.5A.906.906,0,0,1,9.2.5Z" transform="translate(0 0.016)" fill="#ed8a19"/>
    </g>
  </g>
</svg>
